<?xml version="1.0" standalone="no"?>
<!DOCTYPE svg PUBLIC "-//W3C//DTD SVG 20010904//EN"
 "http://www.w3.org/TR/2001/REC-SVG-20010904/DTD/svg10.dtd">
<svg version="1.0" xmlns="http://www.w3.org/2000/svg"
 width="700.000000pt" height="700.000000pt" viewBox="0 0 700.000000 700.000000"
 preserveAspectRatio="xMidYMid meet">
<metadata>
Created by potrace 1.11, written by Peter Selinger 2001-2013
</metadata>
<g transform="translate(0.000000,700.000000) scale(0.100000,-0.100000)"
fill="#000000" stroke="none">
<path d="M0 3500 l0 -3500 3500 0 3500 0 0 3500 0 3500 -3500 0 -3500 0 0
-3500z m3465 1525 c738 -113 1276 -575 1406 -1208 66 -323 18 -710 -127 -1017
-215 -455 -646 -784 -1167 -890 -216 -44 -413 -49 -827 -19 -86 6 -319 9 -525
7 l-370 -3 0 25 c0 23 4 25 45 28 125 7 247 24 284 40 60 27 102 80 118 149
10 47 13 306 13 1333 0 1181 -1 1279 -17 1331 -39 124 -108 160 -338 175
l-100 7 0 28 0 29 398 -6 c218 -3 460 -1 537 5 198 13 536 7 670 -14z m2067
-2815 c48 -14 97 -55 114 -97 33 -78 6 -199 -54 -242 -39 -27 -110 -41 -164
-30 -24 4 -46 8 -50 9 -15 0 -79 64 -94 91 -18 36 -18 142 0 177 41 80 149
119 248 92z"/>
<path d="M2860 4969 c-38 -6 -92 -22 -130 -42 -54 -27 -70 -41 -97 -85 -18
-31 -36 -79 -42 -116 -15 -86 -15 -2394 0 -2486 20 -122 70 -199 159 -245 86
-43 140 -50 390 -50 206 1 248 4 340 24 279 60 492 167 667 333 203 195 332
439 395 750 20 99 23 142 23 353 -1 205 -4 257 -23 357 -46 241 -159 510 -285
678 -208 275 -523 468 -856 524 -104 18 -426 20 -541 5z"/>
</g>
</svg>
