<svg width="40" height="15" viewBox="0 0 40 15" fill="none" xmlns="http://www.w3.org/2000/svg">
<path d="M5.53513 10.0978C5.1618 10.0978 4.6858 10.0744 4.10713 10.0278C3.43513 9.99042 3.00113 9.97175 2.80513 9.97175C2.5438 9.97175 2.2638 9.98575 1.96513 10.0138C1.86246 10.0231 1.70846 10.0324 1.50313 10.0418C1.2978 10.0511 1.12046 10.0558 0.97113 10.0558C0.88713 10.0558 0.821797 10.0371 0.77513 9.99975C0.728464 9.97175 0.709797 9.92975 0.71913 9.87375C0.74713 9.72442 0.88713 9.62642 1.13913 9.57975C1.53113 9.53308 1.80646 9.44442 1.96513 9.31375C2.13313 9.17375 2.26846 8.94508 2.37113 8.62775L4.40113 2.22975C4.42913 2.12708 4.44313 2.03842 4.44313 1.96375C4.44313 1.77708 4.36846 1.64175 4.21913 1.55775C4.0698 1.47375 3.82713 1.39442 3.49113 1.31975C3.30446 1.28242 3.22513 1.18442 3.25313 1.02575C3.26246 0.96975 3.30446 0.92775 3.37913 0.89975C3.4538 0.862417 3.53313 0.84375 3.61713 0.84375C3.86913 0.84375 4.22846 0.853083 4.69513 0.87175C5.14313 0.890417 5.45113 0.89975 5.61913 0.89975C5.7778 0.89975 6.0158 0.890417 6.33313 0.87175C6.72513 0.853083 7.08913 0.84375 7.42513 0.84375C8.2838 0.84375 9.0258 1.00242 9.65113 1.31975C10.2858 1.63708 10.7711 2.08508 11.1071 2.66375C11.4431 3.24242 11.6111 3.90975 11.6111 4.66575C11.6111 5.61775 11.3405 6.51375 10.7991 7.35375C10.2671 8.18442 9.53446 8.85175 8.60113 9.35575C7.67713 9.85042 6.65513 10.0978 5.53513 10.0978ZM5.56313 9.62175C6.30046 9.62175 6.98646 9.36975 7.62113 8.86575C8.26513 8.36175 8.77846 7.70842 9.16113 6.90575C9.5438 6.09375 9.73513 5.26308 9.73513 4.41375C9.73513 3.36842 9.52513 2.59842 9.10513 2.10375C8.68513 1.59975 8.09713 1.34775 7.34113 1.34775C6.94913 1.34775 6.67846 1.39442 6.52913 1.48775C6.38913 1.58108 6.2818 1.74908 6.20713 1.99175L4.30313 8.19375C4.24713 8.37108 4.21913 8.52975 4.21913 8.66975C4.21913 8.99642 4.34046 9.23908 4.58313 9.39775C4.83513 9.54708 5.1618 9.62175 5.56313 9.62175Z" fill="white"/>
<path d="M13.3227 10.2098C13.0894 10.2098 12.8421 10.1351 12.5807 9.98575C12.3287 9.82708 12.1141 9.62175 11.9367 9.36975C11.7687 9.11775 11.6847 8.85642 11.6847 8.58575C11.6847 7.87642 11.8621 7.16708 12.2167 6.45775C12.5807 5.73908 13.0521 5.15575 13.6307 4.70775C14.2094 4.25042 14.8067 4.02175 15.4227 4.02175C15.8707 4.02175 16.2114 4.11042 16.4447 4.28775C16.6781 4.46508 16.7947 4.69375 16.7947 4.97375C16.7947 5.52442 16.4867 5.95375 15.8707 6.26175C15.2641 6.56042 14.4847 6.80775 13.5327 7.00375C13.4487 7.01308 13.3927 7.05508 13.3647 7.12975C13.2714 7.43775 13.2201 7.68975 13.2107 7.88575C13.2014 8.23108 13.2807 8.51108 13.4487 8.72575C13.6167 8.93108 13.8547 9.03375 14.1627 9.03375C14.4241 9.03375 14.6667 8.96842 14.8907 8.83775C15.1147 8.70708 15.3341 8.52508 15.5487 8.29175C15.6421 8.18908 15.7261 8.13775 15.8007 8.13775C15.8847 8.13775 15.9267 8.18442 15.9267 8.27775C15.9267 8.36175 15.9127 8.41775 15.8847 8.44575C15.5954 8.97775 15.2314 9.40708 14.7927 9.73375C14.3634 10.0511 13.8734 10.2098 13.3227 10.2098ZM13.6307 6.56975C14.1254 6.46708 14.5781 6.28508 14.9887 6.02375C15.3994 5.76242 15.6047 5.38908 15.6047 4.90375C15.6047 4.79175 15.5674 4.69375 15.4927 4.60975C15.4274 4.51642 15.3387 4.46975 15.2267 4.46975C15.0027 4.46975 14.7647 4.58175 14.5127 4.80575C14.2607 5.02042 14.0414 5.28642 13.8547 5.60375C13.6681 5.92108 13.5607 6.21508 13.5327 6.48575V6.51375C13.5327 6.55108 13.5654 6.56975 13.6307 6.56975Z" fill="white"/>
<path d="M17.4694 10.1958C17.1334 10.1958 16.8627 10.1164 16.6574 9.95775C16.4427 9.79908 16.3354 9.59375 16.3354 9.34175C16.3354 9.11775 16.3914 8.93108 16.5034 8.78175C16.606 8.63242 16.7274 8.55775 16.8674 8.55775C16.9234 8.55775 16.998 8.59975 17.0914 8.68375C17.1847 8.75842 17.2827 8.84708 17.3854 8.94975C17.5627 9.11775 17.7167 9.24842 17.8474 9.34175C17.9874 9.43508 18.1414 9.48175 18.3094 9.48175C18.496 9.48175 18.636 9.42575 18.7294 9.31375C18.832 9.20175 18.888 9.05242 18.8974 8.86575C18.8974 8.61375 18.7107 8.18908 18.3374 7.59175C17.964 7.03175 17.7774 6.55575 17.7774 6.16375C17.7774 5.84642 17.908 5.52442 18.1694 5.19775C18.44 4.86175 18.748 4.58175 19.0934 4.35775C19.448 4.13375 19.7327 4.02175 19.9474 4.02175C20.134 4.02175 20.3207 4.06842 20.5074 4.16175C20.694 4.24575 20.848 4.35308 20.9694 4.48375C21.1 4.60508 21.1654 4.71242 21.1654 4.80575C21.1654 4.94575 21.0814 5.11375 20.9134 5.30975C20.7454 5.49642 20.5914 5.58975 20.4514 5.58975C20.3207 5.58975 20.1667 5.47308 19.9894 5.23975C19.9147 5.12775 19.8214 5.03908 19.7094 4.97375C19.5974 4.89908 19.4807 4.86175 19.3594 4.86175C19.2194 4.86175 19.1074 4.91308 19.0234 5.01575C18.9394 5.11842 18.8974 5.23975 18.8974 5.37975C18.8974 5.55708 19.112 5.95375 19.5414 6.56975C19.9707 7.18575 20.1854 7.69908 20.1854 8.10975C20.1854 8.39908 20.0454 8.71175 19.7654 9.04775C19.4947 9.37442 19.1447 9.64975 18.7154 9.87375C18.2954 10.0884 17.88 10.1958 17.4694 10.1958Z" fill="white"/>
<path d="M22.0573 10.1958C21.8613 10.1958 21.6887 10.1258 21.5393 9.98575C21.39 9.84575 21.3153 9.69642 21.3153 9.53775C21.3153 9.42575 21.334 9.33242 21.3713 9.25775C21.6327 8.67908 22.0247 7.74575 22.5473 6.45775L22.8833 5.63175C22.902 5.55708 22.8833 5.51975 22.8273 5.51975C22.6593 5.51975 22.3373 5.67375 21.8613 5.98175C21.796 6.01908 21.7446 6.03775 21.7073 6.03775C21.5953 6.03775 21.5393 6.00508 21.5393 5.93975C21.5393 5.82775 21.6747 5.64575 21.9453 5.39375C22.2253 5.13242 22.5567 4.87575 22.9393 4.62375C23.322 4.36242 23.6627 4.17108 23.9613 4.04975C24.0173 4.03108 24.0593 4.02175 24.0873 4.02175C24.246 4.02175 24.3953 4.09642 24.5353 4.24575C24.6753 4.38575 24.722 4.51175 24.6753 4.62375L23.0653 8.55775C23.028 8.62308 23.0093 8.71642 23.0093 8.83775C23.0093 8.87508 23.0233 8.90775 23.0513 8.93575C23.0793 8.95442 23.1073 8.96375 23.1353 8.96375C23.266 8.96375 23.4807 8.85175 23.7793 8.62775C24.078 8.40375 24.3533 8.16575 24.6053 7.91375C24.6333 7.88575 24.652 7.87175 24.6613 7.87175C24.6987 7.87175 24.7313 7.89042 24.7593 7.92775C24.7873 7.95575 24.8013 7.98842 24.8013 8.02575C24.8013 8.24042 24.638 8.52508 24.3113 8.87975C23.9847 9.22508 23.602 9.53308 23.1633 9.80375C22.734 10.0651 22.3653 10.1958 22.0573 10.1958ZM24.7313 2.90175C24.5447 2.90175 24.386 2.83175 24.2553 2.69175C24.134 2.55175 24.0733 2.38842 24.0733 2.20175C24.0733 1.91242 24.1713 1.66042 24.3673 1.44575C24.5727 1.22175 24.8247 1.10975 25.1233 1.10975C25.31 1.10975 25.4593 1.18908 25.5713 1.34775C25.6927 1.49708 25.7533 1.67442 25.7533 1.87975C25.7533 2.15042 25.6507 2.38842 25.4453 2.59375C25.24 2.79908 25.002 2.90175 24.7313 2.90175Z" fill="white"/>
<path d="M27.088 14.0598C26.5187 14.0598 26.0007 13.9944 25.534 13.8638C25.0674 13.7424 24.6987 13.5651 24.428 13.3318C24.1574 13.1078 24.022 12.8558 24.022 12.5758C24.022 11.9691 24.9274 11.4044 26.738 10.8818C26.822 10.8538 26.8314 10.8118 26.766 10.7558C26.2807 10.4571 26.038 10.1491 26.038 9.83175C26.038 9.66375 26.1174 9.50975 26.276 9.36975C26.444 9.22042 26.6914 9.04775 27.018 8.85175C27.1207 8.77708 27.172 8.71642 27.172 8.66975C27.172 8.63242 27.13 8.59508 27.046 8.55775C26.766 8.42708 26.5374 8.24042 26.36 7.99775C26.1827 7.74575 26.094 7.45175 26.094 7.11575C26.094 6.69575 26.2154 6.24308 26.458 5.75775C26.71 5.26308 27.0647 4.85242 27.522 4.52575C27.9794 4.18975 28.502 4.02175 29.09 4.02175C29.2487 4.02175 29.384 4.04042 29.496 4.07775C29.608 4.11508 29.7527 4.17108 29.93 4.24575C29.986 4.27375 30.0794 4.31575 30.21 4.37175C30.3407 4.42775 30.4434 4.45575 30.518 4.45575C30.6767 4.45575 30.9147 4.41842 31.232 4.34375C31.4934 4.27842 31.7034 4.24575 31.862 4.24575C31.9367 4.24575 32.0114 4.27842 32.086 4.34375C32.1607 4.39975 32.198 4.48842 32.198 4.60975C32.198 4.77775 32.1654 4.91308 32.1 5.01575C32.0347 5.11842 31.9554 5.16975 31.862 5.16975C31.7874 5.16975 31.6287 5.15108 31.386 5.11375C31.1807 5.06708 31.008 5.04375 30.868 5.04375C30.728 5.04375 30.6767 5.09975 30.714 5.21175C30.742 5.30508 30.756 5.44508 30.756 5.63175C30.756 6.12642 30.6254 6.61642 30.364 7.10175C30.112 7.58708 29.7667 7.98375 29.328 8.29175C28.8987 8.59975 28.4367 8.75375 27.942 8.75375C27.7367 8.75375 27.5967 8.77708 27.522 8.82375C27.4287 8.90775 27.382 9.00575 27.382 9.11775C27.382 9.24842 27.424 9.36508 27.508 9.46775C27.592 9.57042 27.7367 9.69175 27.942 9.83175L28.866 10.4198C29.3047 10.6811 29.636 10.8911 29.86 11.0498C30.2987 11.3577 30.518 11.6798 30.518 12.0158C30.518 12.3518 30.3454 12.6784 30 12.9958C29.6547 13.3131 29.2114 13.5698 28.67 13.7658C28.138 13.9618 27.6107 14.0598 27.088 14.0598ZM27.788 8.27775C28.0494 8.27775 28.32 8.08175 28.6 7.68975C28.8894 7.29775 29.132 6.84042 29.328 6.31775C29.524 5.79508 29.622 5.37508 29.622 5.05775C29.622 4.88975 29.58 4.74975 29.496 4.63775C29.4214 4.51642 29.328 4.45575 29.216 4.45575C28.9734 4.45575 28.7074 4.64708 28.418 5.02975C28.1287 5.40308 27.8814 5.84642 27.676 6.35975C27.4707 6.87308 27.3634 7.30242 27.354 7.64775C27.354 7.84375 27.396 7.99775 27.48 8.10975C27.564 8.22175 27.6667 8.27775 27.788 8.27775ZM27.62 13.5838C28.0494 13.5838 28.404 13.4904 28.684 13.3038C28.9734 13.1264 29.1227 12.9071 29.132 12.6458C29.132 12.5338 29.09 12.4124 29.006 12.2818C28.9314 12.1604 28.8194 12.0531 28.67 11.9598C28.4927 11.8384 28.2827 11.7031 28.04 11.5538C27.8067 11.4138 27.6247 11.3111 27.494 11.2458C27.4007 11.1898 27.3074 11.1618 27.214 11.1618C27.1674 11.1618 27.0694 11.1804 26.92 11.2178C26.4067 11.3764 26.024 11.5491 25.772 11.7358C25.52 11.9318 25.394 12.1791 25.394 12.4778C25.394 12.6738 25.4874 12.8558 25.674 13.0238C25.8607 13.1918 26.122 13.3271 26.458 13.4298C26.794 13.5324 27.1814 13.5838 27.62 13.5838Z" fill="white"/>
<path d="M33.1244 10.2098C32.9844 10.2098 32.8304 10.1304 32.6624 9.97175C32.4944 9.81308 32.4104 9.63575 32.4104 9.43975C32.4104 9.35575 32.4244 9.28108 32.4524 9.21575L33.9364 5.54775C33.9831 5.42642 34.0064 5.33308 34.0064 5.26775C34.0064 5.16508 33.9551 5.11375 33.8524 5.11375C33.6751 5.11375 33.4931 5.14642 33.3064 5.21175C33.1291 5.27708 32.9471 5.42642 32.7604 5.65975C32.7138 5.70642 32.6671 5.72975 32.6204 5.72975C32.5924 5.72975 32.5644 5.71575 32.5364 5.68775C32.5084 5.65975 32.4944 5.62242 32.4944 5.57575C32.4944 5.49175 32.5458 5.36575 32.6484 5.19775C32.7511 5.02975 32.8491 4.88975 32.9424 4.77775C33.4184 4.28308 34.0111 4.03108 34.7204 4.02175C34.9258 4.02175 35.0891 4.08708 35.2104 4.21775C35.3411 4.34842 35.4064 4.50708 35.4064 4.69375C35.4064 4.79642 35.3831 4.90842 35.3364 5.02975L34.5384 7.04575L34.5244 7.08775C34.5244 7.13442 34.5571 7.15775 34.6224 7.15775C34.6784 7.15775 34.7204 7.13442 34.7484 7.08775C35.9151 5.04375 36.9698 4.02175 37.9124 4.02175C38.2298 4.02175 38.4678 4.11975 38.6264 4.31575C38.7944 4.51175 38.8784 4.76375 38.8784 5.07175C38.8784 5.35175 38.8271 5.59908 38.7244 5.81375L37.5904 8.47375C37.5438 8.58575 37.5204 8.68842 37.5204 8.78175C37.5204 8.88442 37.5671 8.93575 37.6604 8.93575C37.7911 8.93575 38.0011 8.83308 38.2904 8.62775C38.5891 8.42242 38.7991 8.25908 38.9204 8.13775C39.0138 8.04442 39.0791 7.99775 39.1164 7.99775C39.1444 7.99775 39.1724 8.01642 39.2004 8.05375C39.2284 8.08175 39.2424 8.11442 39.2424 8.15175C39.2424 8.29175 39.1958 8.42242 39.1024 8.54375C38.6918 9.02908 38.2251 9.42575 37.7024 9.73375C37.1891 10.0417 36.7038 10.1958 36.2464 10.1958C36.0971 10.1958 35.9571 10.1351 35.8264 10.0138C35.6958 9.90175 35.6304 9.77575 35.6304 9.63575C35.6304 9.57042 35.6398 9.51908 35.6584 9.48175C36.0318 8.65108 36.2604 8.14242 36.3444 7.95575C36.7738 7.05042 37.1284 6.23842 37.4084 5.51975C37.4738 5.33308 37.5064 5.18375 37.5064 5.07175C37.5064 4.91308 37.4364 4.83375 37.2964 4.83375C37.1378 4.82442 36.9558 4.93175 36.7504 5.15575C36.5451 5.37042 36.2698 5.71108 35.9244 6.17775C35.7471 6.42042 35.4438 6.88708 35.0144 7.57775C34.5851 8.25908 34.2071 8.88442 33.8804 9.45375C33.7404 9.69642 33.6098 9.88308 33.4884 10.0138C33.3671 10.1444 33.2458 10.2098 33.1244 10.2098Z" fill="white"/>
</svg>
