<svg width="76" height="14" viewBox="0 0 76 14" fill="none" xmlns="http://www.w3.org/2000/svg">
<path d="M5.66501 10.0976C5.29168 10.0976 4.81568 10.0742 4.23701 10.0276C3.56501 9.99023 3.13101 9.97156 2.93501 9.97156C2.67368 9.97156 2.39368 9.98556 2.09501 10.0136C1.99235 10.0229 1.83835 10.0322 1.63301 10.0416C1.42768 10.0509 1.25035 10.0556 1.10101 10.0556C1.01701 10.0556 0.95168 10.0369 0.905013 9.99956C0.858346 9.97156 0.83968 9.92956 0.849013 9.87356C0.877013 9.72423 1.01701 9.62623 1.26901 9.57956C1.66101 9.5329 1.93635 9.44423 2.09501 9.31356C2.26301 9.17356 2.39835 8.9449 2.50101 8.62756L4.53101 2.22956C4.55901 2.1269 4.57301 2.03823 4.57301 1.96356C4.57301 1.7769 4.49835 1.64156 4.34901 1.55756C4.19968 1.47356 3.95701 1.39423 3.62101 1.31956C3.43435 1.28223 3.35501 1.18423 3.38301 1.02556C3.39235 0.969562 3.43435 0.927562 3.50901 0.899562C3.58368 0.862229 3.66301 0.843562 3.74701 0.843562C3.99901 0.843562 4.35835 0.852896 4.82501 0.871563C5.27301 0.890229 5.58101 0.899562 5.74901 0.899562C5.90768 0.899562 6.14568 0.890229 6.46301 0.871563C6.85501 0.852896 7.21901 0.843562 7.55501 0.843562C8.41368 0.843562 9.15568 1.00223 9.78101 1.31956C10.4157 1.6369 10.901 2.0849 11.237 2.66356C11.573 3.24223 11.741 3.90956 11.741 4.66556C11.741 5.61756 11.4703 6.51356 10.929 7.35356C10.397 8.18423 9.66435 8.85156 8.73101 9.35556C7.80701 9.85023 6.78501 10.0976 5.66501 10.0976ZM5.69301 9.62156C6.43035 9.62156 7.11635 9.36956 7.75101 8.86556C8.39501 8.36156 8.90835 7.70823 9.29101 6.90556C9.67368 6.09356 9.86501 5.2629 9.86501 4.41356C9.86501 3.36823 9.65501 2.59823 9.23501 2.10356C8.81501 1.59956 8.22701 1.34756 7.47101 1.34756C7.07901 1.34756 6.80835 1.39423 6.65901 1.48756C6.51901 1.5809 6.41168 1.7489 6.33701 1.99156L4.43301 8.19356C4.37701 8.3709 4.34901 8.52956 4.34901 8.66956C4.34901 8.99623 4.47035 9.2389 4.71301 9.39756C4.96501 9.5469 5.29168 9.62156 5.69301 9.62156Z" fill="white"/>
<path d="M13.4526 10.2096C13.2193 10.2096 12.972 10.1349 12.7106 9.98556C12.4586 9.8269 12.244 9.62156 12.0666 9.36956C11.8986 9.11756 11.8146 8.85623 11.8146 8.58556C11.8146 7.87623 11.992 7.1669 12.3466 6.45756C12.7106 5.7389 13.182 5.15556 13.7606 4.70756C14.3393 4.25023 14.9366 4.02156 15.5526 4.02156C16.0006 4.02156 16.3413 4.11023 16.5746 4.28756C16.808 4.4649 16.9246 4.69356 16.9246 4.97356C16.9246 5.52423 16.6166 5.95356 16.0006 6.26156C15.394 6.56023 14.6146 6.80756 13.6626 7.00356C13.5786 7.0129 13.5226 7.0549 13.4946 7.12956C13.4013 7.43756 13.35 7.68956 13.3406 7.88556C13.3313 8.2309 13.4106 8.5109 13.5786 8.72556C13.7466 8.9309 13.9846 9.03356 14.2926 9.03356C14.554 9.03356 14.7966 8.96823 15.0206 8.83756C15.2446 8.7069 15.464 8.5249 15.6786 8.29156C15.772 8.1889 15.856 8.13756 15.9306 8.13756C16.0146 8.13756 16.0566 8.18423 16.0566 8.27756C16.0566 8.36156 16.0426 8.41756 16.0146 8.44556C15.7253 8.97756 15.3613 9.4069 14.9226 9.73356C14.4933 10.0509 14.0033 10.2096 13.4526 10.2096ZM13.7606 6.56956C14.2553 6.4669 14.708 6.2849 15.1186 6.02356C15.5293 5.76223 15.7346 5.3889 15.7346 4.90356C15.7346 4.79156 15.6973 4.69356 15.6226 4.60956C15.5573 4.51623 15.4686 4.46956 15.3566 4.46956C15.1326 4.46956 14.8946 4.58156 14.6426 4.80556C14.3906 5.02023 14.1713 5.28623 13.9846 5.60356C13.798 5.9209 13.6906 6.2149 13.6626 6.48556V6.51356C13.6626 6.5509 13.6953 6.56956 13.7606 6.56956Z" fill="white"/>
<path d="M18.8312 10.1956C18.4766 10.1956 18.1919 10.0836 17.9772 9.85956C17.7626 9.63556 17.6552 9.3509 17.6552 9.00556C17.6552 8.7909 17.6972 8.57156 17.7812 8.34756L18.6632 5.95356C18.7006 5.8509 18.7192 5.76223 18.7192 5.68756C18.7192 5.57556 18.6772 5.51956 18.5932 5.51956C18.5092 5.51956 18.3832 5.57556 18.2152 5.68756C18.0566 5.79023 17.9212 5.89756 17.8092 6.00956C17.7066 6.11223 17.6226 6.16356 17.5572 6.16356C17.4546 6.16356 17.4032 6.12156 17.4032 6.03756C17.4032 5.94423 17.4872 5.78556 17.6552 5.56156C17.9539 5.1789 18.3366 4.82423 18.8032 4.49756C19.2792 4.1709 19.6526 4.00756 19.9232 4.00756C20.0726 4.00756 20.2079 4.08223 20.3292 4.23156C20.4599 4.3809 20.5019 4.5209 20.4552 4.65156L19.2932 8.17956C19.2372 8.37556 19.2092 8.5389 19.2092 8.66956C19.2092 8.99623 19.3819 9.15956 19.7272 9.15956C20.0446 9.15956 20.3899 9.0009 20.7632 8.68356C21.1366 8.36623 21.4492 7.97423 21.7012 7.50756C21.9532 7.0409 22.0792 6.60223 22.0792 6.19156C22.0792 5.79956 21.9439 5.46823 21.6732 5.19756C21.5799 5.10423 21.5146 5.0249 21.4772 4.95956C21.4399 4.8849 21.4212 4.8009 21.4212 4.70756C21.4212 4.62356 21.4866 4.52556 21.6172 4.41356C21.7479 4.30156 21.9066 4.20823 22.0932 4.13356C22.2799 4.04956 22.4386 4.00756 22.5692 4.00756C22.7092 4.00756 22.8306 4.1009 22.9332 4.28756C23.0359 4.47423 23.0872 4.7449 23.0872 5.09956C23.0872 5.67823 22.9379 6.27556 22.6392 6.89156C22.3499 7.49823 21.9532 8.08156 21.4492 8.64156C21.0012 9.1269 20.5532 9.50956 20.1052 9.78956C19.6666 10.0602 19.2419 10.1956 18.8312 10.1956Z" fill="white"/>
<path d="M24.9643 10.2096C24.731 10.2096 24.4837 10.1349 24.2223 9.98556C23.9703 9.8269 23.7557 9.62156 23.5783 9.36956C23.4103 9.11756 23.3263 8.85623 23.3263 8.58556C23.3263 7.87623 23.5037 7.1669 23.8583 6.45756C24.2223 5.7389 24.6937 5.15556 25.2723 4.70756C25.851 4.25023 26.4483 4.02156 27.0643 4.02156C27.5123 4.02156 27.853 4.11023 28.0863 4.28756C28.3197 4.4649 28.4363 4.69356 28.4363 4.97356C28.4363 5.52423 28.1283 5.95356 27.5123 6.26156C26.9057 6.56023 26.1263 6.80756 25.1743 7.00356C25.0903 7.0129 25.0343 7.0549 25.0063 7.12956C24.913 7.43756 24.8617 7.68956 24.8523 7.88556C24.843 8.2309 24.9223 8.5109 25.0903 8.72556C25.2583 8.9309 25.4963 9.03356 25.8043 9.03356C26.0657 9.03356 26.3083 8.96823 26.5323 8.83756C26.7563 8.7069 26.9757 8.5249 27.1903 8.29156C27.2837 8.1889 27.3677 8.13756 27.4423 8.13756C27.5263 8.13756 27.5683 8.18423 27.5683 8.27756C27.5683 8.36156 27.5543 8.41756 27.5263 8.44556C27.237 8.97756 26.873 9.4069 26.4343 9.73356C26.005 10.0509 25.515 10.2096 24.9643 10.2096ZM25.2723 6.56956C25.767 6.4669 26.2197 6.2849 26.6303 6.02356C27.041 5.76223 27.2463 5.3889 27.2463 4.90356C27.2463 4.79156 27.209 4.69356 27.1343 4.60956C27.069 4.51623 26.9803 4.46956 26.8683 4.46956C26.6443 4.46956 26.4063 4.58156 26.1543 4.80556C25.9023 5.02023 25.683 5.28623 25.4963 5.60356C25.3097 5.9209 25.2023 6.2149 25.1743 6.48556V6.51356C25.1743 6.5509 25.207 6.56956 25.2723 6.56956Z" fill="white"/>
<path d="M28.8955 10.1956C28.7182 10.1956 28.5502 10.1162 28.3915 9.95756C28.2422 9.7989 28.1675 9.63556 28.1675 9.46756C28.1675 9.3929 28.1815 9.3089 28.2095 9.21556L30.6875 2.03356C30.7528 1.83756 30.7855 1.66956 30.7855 1.52956C30.7855 1.36156 30.7248 1.23556 30.6035 1.15156C30.5102 1.09556 30.3888 0.992896 30.2395 0.843562C30.2022 0.806229 30.1835 0.764229 30.1835 0.717562C30.1835 0.670895 30.2068 0.638229 30.2535 0.619563C30.5242 0.535562 30.7808 0.470229 31.0235 0.423563L31.5835 0.269562C31.7515 0.232229 31.9288 0.199562 32.1155 0.171562C32.3115 0.134229 32.4655 0.110896 32.5775 0.101562C32.6242 0.101562 32.6662 0.129562 32.7035 0.185562C32.7408 0.241562 32.7548 0.297562 32.7455 0.353563C32.7082 0.530896 32.6568 0.708229 32.5915 0.885562L29.9455 8.45956C29.9175 8.5529 29.9035 8.64156 29.9035 8.72556C29.9035 8.85623 29.9548 8.92156 30.0575 8.92156C30.1882 8.92156 30.3748 8.8189 30.6175 8.61356C30.8695 8.3989 31.1075 8.1609 31.3315 7.89956C31.4062 7.78756 31.4715 7.73156 31.5275 7.73156C31.6115 7.73156 31.6535 7.80156 31.6535 7.94156C31.6535 8.19356 31.4855 8.50156 31.1495 8.86556C30.8135 9.22023 30.4215 9.5329 29.9735 9.80356C29.5348 10.0649 29.1755 10.1956 28.8955 10.1956Z" fill="white"/>
<path d="M34.1835 10.1956C33.8755 10.1956 33.5814 10.1162 33.3014 9.95756C33.0308 9.78956 32.8114 9.56556 32.6434 9.28556C32.4848 9.00556 32.4055 8.6929 32.4055 8.34756C32.4055 7.7409 32.5688 7.10156 32.8955 6.42956C33.2314 5.74823 33.6888 5.1789 34.2675 4.72156C34.8555 4.2549 35.5135 4.02156 36.2415 4.02156C36.8108 4.02156 37.2635 4.19423 37.5994 4.53956C37.9448 4.8849 38.1175 5.34223 38.1175 5.91156C38.1175 6.5089 37.9541 7.14356 37.6274 7.81556C37.3008 8.48756 36.8341 9.05223 36.2275 9.50956C35.6301 9.9669 34.9488 10.1956 34.1835 10.1956ZM34.4495 9.69156C34.7575 9.69156 35.0795 9.4349 35.4155 8.92156C35.7514 8.40823 36.0315 7.7969 36.2555 7.08756C36.4888 6.3689 36.6054 5.73423 36.6054 5.18356C36.6054 4.73556 36.4328 4.51156 36.0875 4.51156C35.8075 4.51156 35.4948 4.76356 35.1495 5.26756C34.8041 5.76223 34.5101 6.36423 34.2675 7.07356C34.0341 7.7829 33.9174 8.42223 33.9174 8.99156C33.9174 9.45823 34.0948 9.69156 34.4495 9.69156Z" fill="white"/>
<path d="M36.8384 13.9896C36.7264 13.9896 36.6704 13.9429 36.6704 13.8496C36.6798 13.7842 36.7171 13.7282 36.7824 13.6816C36.8478 13.6349 36.9271 13.6022 37.0204 13.5836C37.3004 13.5182 37.5011 13.4436 37.6224 13.3596C37.7344 13.2849 37.8231 13.1496 37.8884 12.9536L40.3664 5.58956C40.4318 5.42156 40.4644 5.3049 40.4644 5.23956C40.4644 5.1369 40.3898 5.09956 40.2404 5.12756C39.9044 5.20223 39.5591 5.30956 39.2044 5.44956C39.1484 5.47756 39.0971 5.49156 39.0504 5.49156C38.9944 5.49156 38.9478 5.47756 38.9104 5.44956C38.8824 5.42156 38.8684 5.37956 38.8684 5.32356C38.8684 5.17423 38.9711 5.05756 39.1764 4.97356C39.7178 4.71223 40.1938 4.5069 40.6044 4.35756C40.7351 4.3109 40.8424 4.1709 40.9264 3.93756C41.0758 3.4989 41.2484 3.1769 41.4444 2.97156C41.6404 2.7569 41.8691 2.64956 42.1304 2.64956C42.3731 2.64956 42.4944 2.76156 42.4944 2.98556C42.4944 3.01356 42.4851 3.08356 42.4664 3.19556L42.2844 3.82556C42.2751 3.8629 42.2704 3.91423 42.2704 3.97956C42.2704 4.08223 42.2938 4.12423 42.3404 4.10556C42.6578 4.04956 42.8911 4.02156 43.0404 4.02156C43.7404 4.02156 44.2678 4.19423 44.6224 4.53956C44.9864 4.87556 45.1684 5.3189 45.1684 5.86956C45.1684 6.50423 44.9818 7.16223 44.6084 7.84356C44.2351 8.51556 43.7451 9.07556 43.1384 9.52356C42.5411 9.97156 41.9204 10.1956 41.2764 10.1956C41.0618 10.1956 40.8331 10.1069 40.5904 9.92956C40.4971 9.86423 40.4271 9.83156 40.3804 9.83156C40.3338 9.83156 40.2918 9.8549 40.2544 9.90156C40.2264 9.94823 40.1938 10.0276 40.1564 10.1396L39.3444 12.8136C39.3164 12.8882 39.3024 12.9536 39.3024 13.0096C39.3024 13.1309 39.3584 13.2336 39.4704 13.3176C39.5918 13.4016 39.7738 13.4716 40.0164 13.5276C40.1004 13.5369 40.1751 13.5602 40.2404 13.5976C40.3058 13.6442 40.3384 13.7049 40.3384 13.7796C40.3384 13.8356 40.3058 13.8776 40.2404 13.9056C40.1751 13.9336 40.0958 13.9476 40.0024 13.9476C39.7038 13.9476 39.4704 13.9429 39.3024 13.9336L38.6024 13.9196C38.4718 13.9196 38.2104 13.9289 37.8184 13.9476C37.4918 13.9756 37.1651 13.9896 36.8384 13.9896ZM41.3744 9.67756C41.6264 9.67756 41.9298 9.49556 42.2844 9.13156C42.6484 8.75823 42.9611 8.29156 43.2224 7.73156C43.4838 7.16223 43.6144 6.6069 43.6144 6.06556C43.6144 5.58023 43.5211 5.23023 43.3344 5.01556C43.1478 4.8009 42.8724 4.6889 42.5084 4.67956C42.4338 4.67956 42.2938 4.6889 42.0884 4.70756L40.8564 8.47356C40.8098 8.60423 40.7864 8.7489 40.7864 8.90756C40.7864 9.04756 40.8051 9.1689 40.8424 9.27156C40.9078 9.41156 40.9778 9.51423 41.0524 9.57956C41.1271 9.6449 41.2344 9.67756 41.3744 9.67756Z" fill="white"/>
<path d="M46.5547 10.2096C46.4241 10.2096 46.2841 10.1442 46.1347 10.0136C45.9947 9.8829 45.9294 9.7289 45.9387 9.55156C45.9387 9.45823 45.9994 9.2529 46.1207 8.93556L47.5347 5.44956C47.5534 5.41223 47.5627 5.3609 47.5627 5.29556C47.5627 5.15556 47.4881 5.08556 47.3387 5.08556C46.9654 5.08556 46.6154 5.2769 46.2887 5.65956C46.2421 5.70623 46.1954 5.72956 46.1487 5.72956C46.1207 5.72956 46.0927 5.71556 46.0647 5.68756C46.0367 5.65956 46.0227 5.62223 46.0227 5.57556C46.0227 5.48223 46.0741 5.35156 46.1767 5.18356C46.2794 5.00623 46.3774 4.8709 46.4707 4.77756C46.7227 4.5349 46.9701 4.3529 47.2127 4.23156C47.4647 4.1009 47.7728 4.0309 48.1367 4.02156C48.3607 4.02156 48.5427 4.0869 48.6827 4.21756C48.8227 4.34823 48.8927 4.5209 48.8927 4.73556C48.8927 4.8569 48.8647 4.98756 48.8087 5.12756L48.0107 7.04556L47.9967 7.10156C47.9967 7.1389 48.0154 7.15756 48.0527 7.15756C48.0994 7.15756 48.1321 7.13423 48.1507 7.08756C48.7761 6.07023 49.3314 5.3049 49.8167 4.79156C50.3021 4.27823 50.7967 4.02156 51.3007 4.02156C51.5994 4.02156 51.8327 4.1149 52.0007 4.30156C52.1687 4.48823 52.2527 4.7309 52.2527 5.02956C52.2527 5.30023 52.1827 5.5849 52.0427 5.88356L51.7487 6.66756L51.7347 6.72356C51.7347 6.7609 51.7581 6.77956 51.8047 6.77956C51.8607 6.77956 51.8981 6.75623 51.9167 6.70956C52.4487 5.8509 52.9621 5.18823 53.4567 4.72156C53.9514 4.2549 54.4507 4.02156 54.9547 4.02156C55.2347 4.02156 55.4494 4.11023 55.5987 4.28756C55.7481 4.45556 55.8227 4.67956 55.8227 4.95956C55.8227 5.23956 55.7481 5.56623 55.5987 5.93956L54.5487 8.47356C54.4927 8.61356 54.4647 8.7209 54.4647 8.79556C54.4647 8.89823 54.5067 8.94956 54.5907 8.94956C54.7961 8.94956 55.2207 8.6509 55.8647 8.05356C55.9581 7.96023 56.0234 7.91356 56.0607 7.91356C56.0887 7.91356 56.1167 7.93223 56.1447 7.96956C56.1727 7.99756 56.1867 8.03023 56.1867 8.06756C56.1681 8.2729 56.0841 8.45023 55.9347 8.59956C55.5241 9.07556 55.0807 9.4629 54.6047 9.76156C54.1381 10.0509 53.6667 10.1956 53.1907 10.1956C53.0694 10.1956 52.9387 10.1396 52.7987 10.0276C52.6587 9.9249 52.5887 9.80356 52.5887 9.66356C52.5887 9.63556 52.5981 9.59356 52.6167 9.53756L54.4227 5.33756C54.4601 5.2629 54.4787 5.18356 54.4787 5.09956C54.4787 5.01556 54.4507 4.95023 54.3947 4.90356C54.3481 4.84756 54.2921 4.81956 54.2267 4.81956C53.9654 4.81023 53.5781 5.14623 53.0647 5.82756C52.6821 6.3689 51.9774 7.4889 50.9507 9.18756C50.7734 9.49556 50.5681 9.7429 50.3347 9.92956C50.1107 10.1162 49.9241 10.2096 49.7747 10.2096C49.6627 10.2096 49.5414 10.1442 49.4107 10.0136C49.2894 9.89223 49.2334 9.77556 49.2427 9.66356C49.2427 9.52356 49.3127 9.2669 49.4527 8.89356L50.8947 5.29556C50.9321 5.21156 50.9507 5.13223 50.9507 5.05756C50.9507 4.97356 50.9274 4.90823 50.8807 4.86156C50.8341 4.8149 50.7781 4.79156 50.7127 4.79156C50.5821 4.78223 50.4047 4.87556 50.1807 5.07156C49.9567 5.26756 49.7094 5.54756 49.4387 5.91156C49.0841 6.37823 48.4401 7.45156 47.5067 9.13156C47.3014 9.51423 47.1241 9.78956 46.9747 9.95756C46.8347 10.1256 46.6947 10.2096 46.5547 10.2096Z" fill="white"/>
<path d="M58.4741 10.2096C58.2408 10.2096 57.9934 10.1349 57.7321 9.98556C57.4801 9.8269 57.2654 9.62156 57.0881 9.36956C56.9201 9.11756 56.8361 8.85623 56.8361 8.58556C56.8361 7.87623 57.0134 7.1669 57.3681 6.45756C57.7321 5.7389 58.2034 5.15556 58.7821 4.70756C59.3608 4.25023 59.9581 4.02156 60.5741 4.02156C61.0221 4.02156 61.3628 4.11023 61.5961 4.28756C61.8294 4.4649 61.9461 4.69356 61.9461 4.97356C61.9461 5.52423 61.6381 5.95356 61.0221 6.26156C60.4154 6.56023 59.6361 6.80756 58.6841 7.00356C58.6001 7.0129 58.5441 7.0549 58.5161 7.12956C58.4228 7.43756 58.3714 7.68956 58.3621 7.88556C58.3528 8.2309 58.4321 8.5109 58.6001 8.72556C58.7681 8.9309 59.0061 9.03356 59.3141 9.03356C59.5754 9.03356 59.8181 8.96823 60.0421 8.83756C60.2661 8.7069 60.4854 8.5249 60.7001 8.29156C60.7934 8.1889 60.8774 8.13756 60.9521 8.13756C61.0361 8.13756 61.0781 8.18423 61.0781 8.27756C61.0781 8.36156 61.0641 8.41756 61.0361 8.44556C60.7468 8.97756 60.3828 9.4069 59.9441 9.73356C59.5148 10.0509 59.0248 10.2096 58.4741 10.2096ZM58.7821 6.56956C59.2768 6.4669 59.7294 6.2849 60.1401 6.02356C60.5508 5.76223 60.7561 5.3889 60.7561 4.90356C60.7561 4.79156 60.7188 4.69356 60.6441 4.60956C60.5788 4.51623 60.4901 4.46956 60.3781 4.46956C60.1541 4.46956 59.9161 4.58156 59.6641 4.80556C59.4121 5.02023 59.1928 5.28623 59.0061 5.60356C58.8194 5.9209 58.7121 6.2149 58.6841 6.48556V6.51356C58.6841 6.5509 58.7168 6.56956 58.7821 6.56956Z" fill="white"/>
<path d="M63.2367 10.2096C63.0967 10.2096 62.9427 10.1302 62.7747 9.97156C62.6067 9.8129 62.5227 9.63556 62.5227 9.43956C62.5227 9.35556 62.5367 9.2809 62.5647 9.21556L64.0487 5.54756C64.0954 5.42623 64.1187 5.3329 64.1187 5.26756C64.1187 5.1649 64.0674 5.11356 63.9647 5.11356C63.7874 5.11356 63.6054 5.14623 63.4187 5.21156C63.2414 5.2769 63.0594 5.42623 62.8727 5.65956C62.8261 5.70623 62.7794 5.72956 62.7327 5.72956C62.7047 5.72956 62.6767 5.71556 62.6487 5.68756C62.6207 5.65956 62.6067 5.62223 62.6067 5.57556C62.6067 5.49156 62.6581 5.36556 62.7607 5.19756C62.8634 5.02956 62.9614 4.88956 63.0547 4.77756C63.5307 4.2829 64.1234 4.0309 64.8327 4.02156C65.0381 4.02156 65.2014 4.0869 65.3227 4.21756C65.4534 4.34823 65.5187 4.5069 65.5187 4.69356C65.5187 4.79623 65.4954 4.90823 65.4487 5.02956L64.6507 7.04556L64.6367 7.08756C64.6367 7.13423 64.6694 7.15756 64.7347 7.15756C64.7907 7.15756 64.8327 7.13423 64.8607 7.08756C66.0274 5.04356 67.0821 4.02156 68.0247 4.02156C68.3421 4.02156 68.5801 4.11956 68.7387 4.31556C68.9067 4.51156 68.9907 4.76356 68.9907 5.07156C68.9907 5.35156 68.9394 5.5989 68.8367 5.81356L67.7027 8.47356C67.6561 8.58556 67.6327 8.68823 67.6327 8.78156C67.6327 8.88423 67.6794 8.93556 67.7727 8.93556C67.9034 8.93556 68.1134 8.8329 68.4027 8.62756C68.7014 8.42223 68.9114 8.2589 69.0327 8.13756C69.1261 8.04423 69.1914 7.99756 69.2287 7.99756C69.2567 7.99756 69.2847 8.01623 69.3127 8.05356C69.3407 8.08156 69.3547 8.11423 69.3547 8.15156C69.3547 8.29156 69.3081 8.42223 69.2147 8.54356C68.8041 9.0289 68.3374 9.42556 67.8147 9.73356C67.3014 10.0416 66.8161 10.1956 66.3587 10.1956C66.2094 10.1956 66.0694 10.1349 65.9387 10.0136C65.8081 9.90156 65.7427 9.77556 65.7427 9.63556C65.7427 9.57023 65.7521 9.5189 65.7707 9.48156C66.1441 8.6509 66.3727 8.14223 66.4567 7.95556C66.8861 7.05023 67.2407 6.23823 67.5207 5.51956C67.5861 5.3329 67.6187 5.18356 67.6187 5.07156C67.6187 4.9129 67.5487 4.83356 67.4087 4.83356C67.2501 4.82423 67.0681 4.93156 66.8627 5.15556C66.6574 5.37023 66.3821 5.7109 66.0367 6.17756C65.8594 6.42023 65.5561 6.8869 65.1267 7.57756C64.6974 8.2589 64.3194 8.88423 63.9927 9.45356C63.8527 9.69623 63.7221 9.8829 63.6007 10.0136C63.4794 10.1442 63.3581 10.2096 63.2367 10.2096Z" fill="white"/>
<path d="M71.0795 10.1956C70.9021 10.1956 70.7295 10.1116 70.5615 9.94356C70.3935 9.77556 70.3095 9.6169 70.3095 9.46756C70.3095 9.38356 70.3235 9.29023 70.3515 9.18756C70.3888 9.07556 70.4308 8.94956 70.4775 8.80956L71.7935 5.21156C71.8215 5.15556 71.8355 5.10423 71.8355 5.05756C71.8355 5.00156 71.8168 4.96423 71.7795 4.94556C71.7421 4.91756 71.7001 4.90356 71.6535 4.90356L71.0095 4.87556C70.8788 4.86623 70.7948 4.83823 70.7575 4.79156C70.7201 4.7449 70.7015 4.6889 70.7015 4.62356C70.7015 4.6049 70.7295 4.55823 70.7855 4.48356C70.8508 4.4089 70.9301 4.34356 71.0235 4.28756C71.1168 4.22223 71.2101 4.18956 71.3035 4.18956H71.9195C72.0408 4.18956 72.1248 4.17556 72.1715 4.14756C72.2181 4.11023 72.2788 4.02156 72.3535 3.88156L72.7175 3.12556C72.8108 2.94823 72.9648 2.7709 73.1795 2.59356C73.3941 2.41623 73.5668 2.32756 73.6975 2.32756C73.7815 2.32756 73.8468 2.36023 73.8935 2.42556C73.9401 2.4909 73.9635 2.5749 73.9635 2.67756C73.9635 2.75223 73.9495 2.8269 73.9215 2.90156L73.5855 3.93756L73.5575 4.06356C73.5575 4.1569 73.6321 4.20356 73.7815 4.20356C73.9961 4.20356 74.3088 4.23156 74.7195 4.28756C74.8875 4.31556 74.9948 4.34823 75.0415 4.38556C75.0881 4.4229 75.1115 4.4789 75.1115 4.55356C75.1115 4.5909 75.0835 4.63756 75.0275 4.69356C74.9715 4.74023 74.8875 4.76823 74.7755 4.77756C74.3741 4.8149 74.0568 4.83823 73.8235 4.84756C73.6648 4.8569 73.5435 4.88023 73.4595 4.91756C73.3848 4.9549 73.3288 5.02023 73.2915 5.11356L72.1855 8.17956C72.1295 8.34756 72.1015 8.47823 72.1015 8.57156C72.1015 8.73023 72.1808 8.80956 72.3395 8.80956C72.5821 8.80956 73.0348 8.49223 73.6975 7.85756C73.7348 7.8109 73.7721 7.78756 73.8095 7.78756C73.8561 7.77823 73.8841 7.78756 73.8935 7.81556C73.9215 7.84356 73.9355 7.88556 73.9355 7.94156C73.9355 8.01623 73.9168 8.08623 73.8795 8.15156C73.7675 8.39423 73.5388 8.6789 73.1935 9.00556C72.8575 9.33223 72.4888 9.61223 72.0875 9.84556C71.6955 10.0789 71.3595 10.1956 71.0795 10.1956Z" fill="white"/>
</svg>
