<svg width="80" height="15" viewBox="0 0 80 15" fill="none" xmlns="http://www.w3.org/2000/svg">
<path d="M6.59722 10.1951C6.55055 10.1951 6.50855 10.1624 6.47122 10.0971C6.43389 10.0411 6.41522 9.96178 6.41522 9.85911V8.99111C6.41522 7.27378 6.35456 5.38378 6.23322 3.32111C6.23322 3.19978 6.20055 3.13911 6.13522 3.13911C6.06055 3.13911 5.98122 3.22311 5.89722 3.39111C5.14122 4.85644 4.47855 6.32178 3.90922 7.78711C3.70389 8.30978 3.60122 8.71111 3.60122 8.99111C3.60122 9.30844 3.75056 9.50444 4.04922 9.57911C4.30122 9.62578 4.41789 9.71444 4.39922 9.84511C4.38989 9.90111 4.33855 9.94778 4.24522 9.98511C4.15189 10.0131 4.05855 10.0271 3.96522 10.0271C3.68522 10.0271 3.41455 10.0178 3.15322 9.99911L2.49522 9.98511C2.41122 9.98511 2.10322 9.99911 1.57122 10.0271L1.06722 10.0551C0.843221 10.0551 0.745221 9.99911 0.773221 9.88711C0.782555 9.82178 0.824555 9.77511 0.899221 9.74711C0.964555 9.70978 1.08122 9.66778 1.24922 9.62111C1.51989 9.54644 1.74389 9.45778 1.92122 9.35511C2.09855 9.25244 2.27589 9.08444 2.45322 8.85111C2.63989 8.61778 2.84055 8.28644 3.05522 7.85711L5.56122 2.84511C5.72922 2.51844 5.81322 2.25244 5.81322 2.04711C5.81322 1.85111 5.71989 1.69244 5.53322 1.57111C5.35589 1.44044 5.06189 1.33778 4.65122 1.26311C4.49255 1.23511 4.38055 1.20244 4.31522 1.16511C4.24989 1.12778 4.21722 1.07178 4.21722 0.99711C4.21722 0.85711 4.39455 0.787109 4.74922 0.787109L5.91122 0.81511C6.41522 0.843109 6.87722 0.857109 7.29722 0.857109C7.51189 0.857109 7.64722 0.922443 7.70322 1.05311C7.76856 1.17444 7.80122 1.37511 7.80122 1.65511V2.08911L7.96922 7.21311C7.98789 7.35311 8.02522 7.42311 8.08122 7.42311C8.12789 7.42311 8.20256 7.37178 8.30522 7.26911C8.93056 6.60644 9.53722 5.91111 10.1252 5.18311C10.7132 4.45511 11.4132 3.55911 12.2252 2.49511C12.3092 2.40178 12.3839 2.31311 12.4492 2.22911C12.5146 2.13578 12.5799 2.04711 12.6452 1.96311L12.8972 1.54311C13.0466 1.29111 13.1399 1.13711 13.1772 1.08111C13.2612 0.959776 13.3592 0.89911 13.4712 0.89911H14.0872C14.3766 0.89911 14.7079 0.875776 15.0812 0.82911C15.1839 0.819776 15.2959 0.810443 15.4172 0.80111C15.5386 0.791776 15.6599 0.787109 15.7812 0.787109C16.0426 0.787109 16.1732 0.852443 16.1732 0.983109C16.1732 1.15111 15.9446 1.27711 15.4872 1.36111C15.1139 1.43578 14.8479 1.55711 14.6892 1.72511C14.5306 1.89311 14.3906 2.18711 14.2692 2.60711C13.8212 4.22178 13.3826 6.11178 12.9532 8.27711C12.9252 8.42644 12.9112 8.56644 12.9112 8.69711C12.9112 8.94911 12.9672 9.14511 13.0792 9.28511C13.2006 9.42511 13.3779 9.52311 13.6112 9.57911C13.8352 9.62578 13.9332 9.71444 13.9052 9.84511C13.8959 9.90111 13.8539 9.94778 13.7792 9.98511C13.7046 10.0131 13.6206 10.0271 13.5272 10.0271C13.3126 10.0271 12.9626 10.0084 12.4772 9.97111C12.3559 9.96178 12.2159 9.95244 12.0572 9.94311C11.8986 9.93378 11.7212 9.92911 11.5252 9.92911C11.3292 9.92911 11.0352 9.94778 10.6432 9.98511C10.2326 10.0224 9.91055 10.0411 9.67722 10.0411C9.49989 10.0411 9.41122 9.98978 9.41122 9.88711C9.41122 9.73778 9.55589 9.63044 9.84522 9.56511C10.1999 9.48111 10.4566 9.37378 10.6152 9.24311C10.7739 9.10311 10.8999 8.88844 10.9932 8.59911C11.3852 7.32044 11.8379 5.64044 12.3512 3.55911V3.51711C12.3512 3.48911 12.3419 3.47511 12.3232 3.47511C12.2952 3.47511 12.2532 3.50311 12.1972 3.55911L8.43122 7.92711L6.94722 9.90111C6.78855 10.0971 6.67189 10.1951 6.59722 10.1951Z" fill="white"/>
<path d="M15.8548 10.1951C15.6682 10.1951 15.4862 10.1251 15.3088 9.98511C15.1315 9.83578 15.0428 9.68178 15.0428 9.52311C15.0428 9.07511 15.2528 8.53378 15.6728 7.89911C16.0928 7.26444 16.7648 6.46644 17.6888 5.50511C18.1182 5.06644 18.5055 4.72111 18.8508 4.46911C19.1962 4.21711 19.4528 4.09111 19.6208 4.09111C19.7142 4.09111 19.8215 4.11911 19.9428 4.17511C20.0735 4.23111 20.1948 4.31044 20.3068 4.41311C20.3908 4.50644 20.4375 4.55311 20.4468 4.55311C20.4655 4.55311 20.4795 4.54844 20.4888 4.53911C20.4982 4.52978 20.5122 4.50644 20.5308 4.46911C20.5775 4.37578 20.6242 4.28711 20.6708 4.20311C20.7268 4.10978 20.7548 4.05378 20.7548 4.03511C20.7735 3.98844 20.8062 3.95111 20.8528 3.92311C20.9088 3.88578 20.9695 3.86711 21.0348 3.86711C21.2122 3.86711 21.3988 3.92778 21.5948 4.04911C21.8002 4.16111 21.9028 4.26844 21.9028 4.37111C21.9028 4.45511 21.8888 4.52511 21.8608 4.58111L20.4048 8.50111C20.3768 8.56644 20.3628 8.63178 20.3628 8.69711C20.3628 8.83711 20.4282 8.90711 20.5588 8.90711C20.6895 8.90711 20.8668 8.82778 21.0908 8.66911C21.3242 8.50111 21.5435 8.30044 21.7488 8.06711C21.7862 8.02978 21.8142 8.01111 21.8328 8.01111C21.8795 8.01111 21.9168 8.02978 21.9448 8.06711C21.9728 8.10444 21.9868 8.15578 21.9868 8.22111C21.9868 8.32378 21.9028 8.48711 21.7348 8.71111C21.5762 8.92578 21.3802 9.13578 21.1468 9.34111C20.8295 9.60244 20.5168 9.81244 20.2088 9.97111C19.9008 10.1204 19.6395 10.1951 19.4248 10.1951C19.2382 10.1951 19.0515 10.1204 18.8648 9.97111C18.6875 9.82178 18.5988 9.66778 18.5988 9.50911C18.5988 9.41578 18.6268 9.30844 18.6828 9.18711C18.6735 9.15911 18.8555 8.73444 19.2288 7.91311C19.2475 7.85711 19.2568 7.82444 19.2568 7.81511C19.2568 7.77778 19.2428 7.75444 19.2148 7.74511C19.1962 7.73578 19.1728 7.74511 19.1448 7.77311C18.3888 8.63178 17.7542 9.25244 17.2408 9.63511C16.7275 10.0084 16.2655 10.1951 15.8548 10.1951ZM17.1008 8.90711C17.2782 8.90711 17.5488 8.75311 17.9128 8.44511C18.2768 8.13711 18.6642 7.73578 19.0748 7.24111C19.3922 6.84911 19.6442 6.50378 19.8308 6.20511C20.0175 5.89711 20.1108 5.67311 20.1108 5.53311C20.1108 5.45844 20.0268 5.35111 19.8588 5.21111C19.6722 5.07111 19.5182 5.00111 19.3968 5.00111C19.2475 5.00111 19.0375 5.08511 18.7668 5.25311C18.5055 5.41178 18.2582 5.60311 18.0248 5.82711C17.6702 6.18178 17.3575 6.61578 17.0868 7.12911C16.8255 7.64244 16.6948 8.07178 16.6948 8.41711C16.6948 8.56644 16.7275 8.68778 16.7928 8.78111C16.8675 8.86511 16.9702 8.90711 17.1008 8.90711Z" fill="white"/>
<path d="M23.7629 10.2091C23.6229 10.2091 23.4689 10.1298 23.3009 9.97111C23.1329 9.81244 23.0489 9.63511 23.0489 9.43911C23.0489 9.35511 23.0629 9.28044 23.0909 9.21511L24.5749 5.54711C24.6215 5.42578 24.6449 5.33244 24.6449 5.26711C24.6449 5.16444 24.5935 5.11311 24.4909 5.11311C24.3135 5.11311 24.1315 5.14578 23.9449 5.21111C23.7675 5.27644 23.5855 5.42578 23.3989 5.65911C23.3522 5.70578 23.3055 5.72911 23.2589 5.72911C23.2309 5.72911 23.2029 5.71511 23.1749 5.68711C23.1469 5.65911 23.1329 5.62178 23.1329 5.57511C23.1329 5.49111 23.1842 5.36511 23.2869 5.19711C23.3895 5.02911 23.4875 4.88911 23.5809 4.77711C24.0569 4.28244 24.6495 4.03044 25.3589 4.02111C25.5642 4.02111 25.7275 4.08644 25.8489 4.21711C25.9795 4.34778 26.0449 4.50644 26.0449 4.69311C26.0449 4.79578 26.0215 4.90778 25.9749 5.02911L25.1769 7.04511L25.1629 7.08711C25.1629 7.13378 25.1955 7.15711 25.2609 7.15711C25.3169 7.15711 25.3589 7.13378 25.3869 7.08711C26.5535 5.04311 27.6082 4.02111 28.5509 4.02111C28.8682 4.02111 29.1062 4.11911 29.2649 4.31511C29.4329 4.51111 29.5169 4.76311 29.5169 5.07111C29.5169 5.35111 29.4655 5.59844 29.3629 5.81311L28.2289 8.47311C28.1822 8.58511 28.1589 8.68778 28.1589 8.78111C28.1589 8.88378 28.2055 8.93511 28.2989 8.93511C28.4295 8.93511 28.6395 8.83244 28.9289 8.62711C29.2275 8.42178 29.4375 8.25844 29.5589 8.13711C29.6522 8.04378 29.7175 7.99711 29.7549 7.99711C29.7829 7.99711 29.8109 8.01578 29.8389 8.05311C29.8669 8.08111 29.8809 8.11378 29.8809 8.15111C29.8809 8.29111 29.8342 8.42178 29.7409 8.54311C29.3302 9.02844 28.8635 9.42511 28.3409 9.73311C27.8275 10.0411 27.3422 10.1951 26.8849 10.1951C26.7355 10.1951 26.5955 10.1344 26.4649 10.0131C26.3342 9.90111 26.2689 9.77511 26.2689 9.63511C26.2689 9.56978 26.2782 9.51844 26.2969 9.48111C26.6702 8.65044 26.8989 8.14178 26.9829 7.95511C27.4122 7.04978 27.7669 6.23778 28.0469 5.51911C28.1122 5.33244 28.1449 5.18311 28.1449 5.07111C28.1449 4.91244 28.0749 4.83311 27.9349 4.83311C27.7762 4.82378 27.5942 4.93111 27.3889 5.15511C27.1835 5.36978 26.9082 5.71044 26.5629 6.17711C26.3855 6.41978 26.0822 6.88644 25.6529 7.57711C25.2235 8.25844 24.8455 8.88378 24.5189 9.45311C24.3789 9.69578 24.2482 9.88244 24.1269 10.0131C24.0055 10.1438 23.8842 10.2091 23.7629 10.2091Z" fill="white"/>
<path d="M30.9896 10.1951C30.8029 10.1951 30.6209 10.1251 30.4436 9.98511C30.2663 9.83578 30.1776 9.68178 30.1776 9.52311C30.1776 9.07511 30.3876 8.53378 30.8076 7.89911C31.2276 7.26444 31.8996 6.46644 32.8236 5.50511C33.2529 5.06644 33.6403 4.72111 33.9856 4.46911C34.3309 4.21711 34.5876 4.09111 34.7556 4.09111C34.8489 4.09111 34.9563 4.11911 35.0776 4.17511C35.2083 4.23111 35.3296 4.31044 35.4416 4.41311C35.5256 4.50644 35.5723 4.55311 35.5816 4.55311C35.6003 4.55311 35.6143 4.54844 35.6236 4.53911C35.6329 4.52978 35.6469 4.50644 35.6656 4.46911C35.7123 4.37578 35.7589 4.28711 35.8056 4.20311C35.8616 4.10978 35.8896 4.05378 35.8896 4.03511C35.9083 3.98844 35.9409 3.95111 35.9876 3.92311C36.0436 3.88578 36.1043 3.86711 36.1696 3.86711C36.3469 3.86711 36.5336 3.92778 36.7296 4.04911C36.9349 4.16111 37.0376 4.26844 37.0376 4.37111C37.0376 4.45511 37.0236 4.52511 36.9956 4.58111L35.5396 8.50111C35.5116 8.56644 35.4976 8.63178 35.4976 8.69711C35.4976 8.83711 35.5629 8.90711 35.6936 8.90711C35.8243 8.90711 36.0016 8.82778 36.2256 8.66911C36.4589 8.50111 36.6783 8.30044 36.8836 8.06711C36.9209 8.02978 36.9489 8.01111 36.9676 8.01111C37.0143 8.01111 37.0516 8.02978 37.0796 8.06711C37.1076 8.10444 37.1216 8.15578 37.1216 8.22111C37.1216 8.32378 37.0376 8.48711 36.8696 8.71111C36.7109 8.92578 36.5149 9.13578 36.2816 9.34111C35.9643 9.60244 35.6516 9.81244 35.3436 9.97111C35.0356 10.1204 34.7743 10.1951 34.5596 10.1951C34.3729 10.1951 34.1863 10.1204 33.9996 9.97111C33.8223 9.82178 33.7336 9.66778 33.7336 9.50911C33.7336 9.41578 33.7616 9.30844 33.8176 9.18711C33.8083 9.15911 33.9903 8.73444 34.3636 7.91311C34.3823 7.85711 34.3916 7.82444 34.3916 7.81511C34.3916 7.77778 34.3776 7.75444 34.3496 7.74511C34.3309 7.73578 34.3076 7.74511 34.2796 7.77311C33.5236 8.63178 32.8889 9.25244 32.3756 9.63511C31.8623 10.0084 31.4003 10.1951 30.9896 10.1951ZM32.2356 8.90711C32.4129 8.90711 32.6836 8.75311 33.0476 8.44511C33.4116 8.13711 33.7989 7.73578 34.2096 7.24111C34.5269 6.84911 34.7789 6.50378 34.9656 6.20511C35.1523 5.89711 35.2456 5.67311 35.2456 5.53311C35.2456 5.45844 35.1616 5.35111 34.9936 5.21111C34.8069 5.07111 34.6529 5.00111 34.5316 5.00111C34.3823 5.00111 34.1723 5.08511 33.9016 5.25311C33.6403 5.41178 33.3929 5.60311 33.1596 5.82711C32.8049 6.18178 32.4923 6.61578 32.2216 7.12911C31.9603 7.64244 31.8296 8.07178 31.8296 8.41711C31.8296 8.56644 31.8623 8.68778 31.9276 8.78111C32.0023 8.86511 32.1049 8.90711 32.2356 8.90711Z" fill="white"/>
<path d="M39.4511 14.0591C38.8817 14.0591 38.3637 13.9938 37.8971 13.8631C37.4304 13.7418 37.0617 13.5644 36.7911 13.3311C36.5204 13.1071 36.3851 12.8551 36.3851 12.5751C36.3851 11.9684 37.2904 11.4038 39.1011 10.8811C39.1851 10.8531 39.1944 10.8111 39.1291 10.7551C38.6437 10.4564 38.4011 10.1484 38.4011 9.83111C38.4011 9.66311 38.4804 9.50911 38.6391 9.36911C38.8071 9.21978 39.0544 9.04711 39.3811 8.85111C39.4837 8.77644 39.5351 8.71578 39.5351 8.66911C39.5351 8.63178 39.4931 8.59444 39.4091 8.55711C39.1291 8.42644 38.9004 8.23978 38.7231 7.99711C38.5457 7.74511 38.4571 7.45111 38.4571 7.11511C38.4571 6.69511 38.5784 6.24244 38.8211 5.75711C39.0731 5.26244 39.4277 4.85178 39.8851 4.52511C40.3424 4.18911 40.8651 4.02111 41.4531 4.02111C41.6117 4.02111 41.7471 4.03978 41.8591 4.07711C41.9711 4.11444 42.1157 4.17044 42.2931 4.24511C42.3491 4.27311 42.4424 4.31511 42.5731 4.37111C42.7037 4.42711 42.8064 4.45511 42.8811 4.45511C43.0397 4.45511 43.2777 4.41778 43.5951 4.34311C43.8564 4.27778 44.0664 4.24511 44.2251 4.24511C44.2997 4.24511 44.3744 4.27778 44.4491 4.34311C44.5237 4.39911 44.5611 4.48778 44.5611 4.60911C44.5611 4.77711 44.5284 4.91244 44.4631 5.01511C44.3977 5.11778 44.3184 5.16911 44.2251 5.16911C44.1504 5.16911 43.9917 5.15044 43.7491 5.11311C43.5437 5.06644 43.3711 5.04311 43.2311 5.04311C43.0911 5.04311 43.0397 5.09911 43.0771 5.21111C43.1051 5.30444 43.1191 5.44444 43.1191 5.63111C43.1191 6.12578 42.9884 6.61578 42.7271 7.10111C42.4751 7.58644 42.1297 7.98311 41.6911 8.29111C41.2617 8.59911 40.7997 8.75311 40.3051 8.75311C40.0997 8.75311 39.9597 8.77644 39.8851 8.82311C39.7917 8.90711 39.7451 9.00511 39.7451 9.11711C39.7451 9.24778 39.7871 9.36444 39.8711 9.46711C39.9551 9.56978 40.0997 9.69111 40.3051 9.83111L41.2291 10.4191C41.6677 10.6804 41.9991 10.8904 42.2231 11.0491C42.6617 11.3571 42.8811 11.6791 42.8811 12.0151C42.8811 12.3511 42.7084 12.6778 42.3631 12.9951C42.0177 13.3124 41.5744 13.5691 41.0331 13.7651C40.5011 13.9611 39.9737 14.0591 39.4511 14.0591ZM40.1511 8.27711C40.4124 8.27711 40.6831 8.08111 40.9631 7.68911C41.2524 7.29711 41.4951 6.83978 41.6911 6.31711C41.8871 5.79444 41.9851 5.37444 41.9851 5.05711C41.9851 4.88911 41.9431 4.74911 41.8591 4.63711C41.7844 4.51578 41.6911 4.45511 41.5791 4.45511C41.3364 4.45511 41.0704 4.64644 40.7811 5.02911C40.4917 5.40244 40.2444 5.84578 40.0391 6.35911C39.8337 6.87244 39.7264 7.30178 39.7171 7.64711C39.7171 7.84311 39.7591 7.99711 39.8431 8.10911C39.9271 8.22111 40.0297 8.27711 40.1511 8.27711ZM39.9831 13.5831C40.4124 13.5831 40.7671 13.4898 41.0471 13.3031C41.3364 13.1258 41.4857 12.9064 41.4951 12.6451C41.4951 12.5331 41.4531 12.4118 41.3691 12.2811C41.2944 12.1598 41.1824 12.0524 41.0331 11.9591C40.8557 11.8378 40.6457 11.7024 40.4031 11.5531C40.1697 11.4131 39.9877 11.3104 39.8571 11.2451C39.7637 11.1891 39.6704 11.1611 39.5771 11.1611C39.5304 11.1611 39.4324 11.1798 39.2831 11.2171C38.7697 11.3758 38.3871 11.5484 38.1351 11.7351C37.8831 11.9311 37.7571 12.1784 37.7571 12.4771C37.7571 12.6731 37.8504 12.8551 38.0371 13.0231C38.2237 13.1911 38.4851 13.3264 38.8211 13.4291C39.1571 13.5318 39.5444 13.5831 39.9831 13.5831Z" fill="white"/>
<path d="M45.7834 10.2091C45.5501 10.2091 45.3028 10.1344 45.0414 9.98511C44.7894 9.82644 44.5748 9.62111 44.3974 9.36911C44.2294 9.11711 44.1454 8.85578 44.1454 8.58511C44.1454 7.87578 44.3228 7.16644 44.6774 6.45711C45.0414 5.73844 45.5128 5.15511 46.0914 4.70711C46.6701 4.24978 47.2674 4.02111 47.8834 4.02111C48.3314 4.02111 48.6721 4.10978 48.9054 4.28711C49.1388 4.46444 49.2554 4.69311 49.2554 4.97311C49.2554 5.52378 48.9474 5.95311 48.3314 6.26111C47.7248 6.55978 46.9454 6.80711 45.9934 7.00311C45.9094 7.01244 45.8534 7.05444 45.8254 7.12911C45.7321 7.43711 45.6808 7.68911 45.6714 7.88511C45.6621 8.23044 45.7414 8.51044 45.9094 8.72511C46.0774 8.93044 46.3154 9.03311 46.6234 9.03311C46.8848 9.03311 47.1274 8.96778 47.3514 8.83711C47.5754 8.70644 47.7948 8.52444 48.0094 8.29111C48.1028 8.18844 48.1868 8.13711 48.2614 8.13711C48.3454 8.13711 48.3874 8.18378 48.3874 8.27711C48.3874 8.36111 48.3734 8.41711 48.3454 8.44511C48.0561 8.97711 47.6921 9.40644 47.2534 9.73311C46.8241 10.0504 46.3341 10.2091 45.7834 10.2091ZM46.0914 6.56911C46.5861 6.46644 47.0388 6.28444 47.4494 6.02311C47.8601 5.76178 48.0654 5.38844 48.0654 4.90311C48.0654 4.79111 48.0281 4.69311 47.9534 4.60911C47.8881 4.51578 47.7994 4.46911 47.6874 4.46911C47.4634 4.46911 47.2254 4.58111 46.9734 4.80511C46.7214 5.01978 46.5021 5.28578 46.3154 5.60311C46.1288 5.92044 46.0214 6.21444 45.9934 6.48511V6.51311C45.9934 6.55044 46.0261 6.56911 46.0914 6.56911Z" fill="white"/>
<path d="M50.4481 10.2091C50.3174 10.2091 50.1774 10.1438 50.0281 10.0131C49.8881 9.88244 49.8227 9.72844 49.8321 9.55111C49.8321 9.45778 49.8927 9.25244 50.0141 8.93511L51.4281 5.44911C51.4467 5.41178 51.4561 5.36044 51.4561 5.29511C51.4561 5.15511 51.3814 5.08511 51.2321 5.08511C50.8587 5.08511 50.5087 5.27644 50.1821 5.65911C50.1354 5.70578 50.0887 5.72911 50.0421 5.72911C50.0141 5.72911 49.9861 5.71511 49.9581 5.68711C49.9301 5.65911 49.9161 5.62178 49.9161 5.57511C49.9161 5.48178 49.9674 5.35111 50.0701 5.18311C50.1727 5.00578 50.2707 4.87044 50.3641 4.77711C50.6161 4.53444 50.8634 4.35244 51.1061 4.23111C51.3581 4.10044 51.6661 4.03044 52.0301 4.02111C52.2541 4.02111 52.4361 4.08644 52.5761 4.21711C52.7161 4.34778 52.7861 4.52044 52.7861 4.73511C52.7861 4.85644 52.7581 4.98711 52.7021 5.12711L51.9041 7.04511L51.8901 7.10111C51.8901 7.13844 51.9087 7.15711 51.9461 7.15711C51.9927 7.15711 52.0254 7.13378 52.0441 7.08711C52.6694 6.06978 53.2247 5.30444 53.7101 4.79111C54.1954 4.27778 54.6901 4.02111 55.1941 4.02111C55.4927 4.02111 55.7261 4.11444 55.8941 4.30111C56.0621 4.48778 56.1461 4.73044 56.1461 5.02911C56.1461 5.29978 56.0761 5.58444 55.9361 5.88311L55.6421 6.66711L55.6281 6.72311C55.6281 6.76044 55.6514 6.77911 55.6981 6.77911C55.7541 6.77911 55.7914 6.75578 55.8101 6.70911C56.3421 5.85044 56.8554 5.18778 57.3501 4.72111C57.8447 4.25444 58.3441 4.02111 58.8481 4.02111C59.1281 4.02111 59.3427 4.10978 59.4921 4.28711C59.6414 4.45511 59.7161 4.67911 59.7161 4.95911C59.7161 5.23911 59.6414 5.56578 59.4921 5.93911L58.4421 8.47311C58.3861 8.61311 58.3581 8.72044 58.3581 8.79511C58.3581 8.89778 58.4001 8.94911 58.4841 8.94911C58.6894 8.94911 59.1141 8.65044 59.7581 8.05311C59.8514 7.95978 59.9167 7.91311 59.9541 7.91311C59.9821 7.91311 60.0101 7.93178 60.0381 7.96911C60.0661 7.99711 60.0801 8.02978 60.0801 8.06711C60.0614 8.27244 59.9774 8.44978 59.8281 8.59911C59.4174 9.07511 58.9741 9.46244 58.4981 9.76111C58.0314 10.0504 57.5601 10.1951 57.0841 10.1951C56.9627 10.1951 56.8321 10.1391 56.6921 10.0271C56.5521 9.92444 56.4821 9.80311 56.4821 9.66311C56.4821 9.63511 56.4914 9.59311 56.5101 9.53711L58.3161 5.33711C58.3534 5.26244 58.3721 5.18311 58.3721 5.09911C58.3721 5.01511 58.3441 4.94978 58.2881 4.90311C58.2414 4.84711 58.1854 4.81911 58.1201 4.81911C57.8587 4.80978 57.4714 5.14578 56.9581 5.82711C56.5754 6.36844 55.8707 7.48844 54.8441 9.18711C54.6667 9.49511 54.4614 9.74244 54.2281 9.92911C54.0041 10.1158 53.8174 10.2091 53.6681 10.2091C53.5561 10.2091 53.4347 10.1438 53.3041 10.0131C53.1827 9.89178 53.1267 9.77511 53.1361 9.66311C53.1361 9.52311 53.2061 9.26644 53.3461 8.89311L54.7881 5.29511C54.8254 5.21111 54.8441 5.13178 54.8441 5.05711C54.8441 4.97311 54.8207 4.90778 54.7741 4.86111C54.7274 4.81444 54.6714 4.79111 54.6061 4.79111C54.4754 4.78178 54.2981 4.87511 54.0741 5.07111C53.8501 5.26711 53.6027 5.54711 53.3321 5.91111C52.9774 6.37778 52.3334 7.45111 51.4001 9.13111C51.1947 9.51378 51.0174 9.78911 50.8681 9.95711C50.7281 10.1251 50.5881 10.2091 50.4481 10.2091Z" fill="white"/>
<path d="M62.3674 10.2091C62.1341 10.2091 61.8868 10.1344 61.6254 9.98511C61.3734 9.82644 61.1588 9.62111 60.9814 9.36911C60.8134 9.11711 60.7294 8.85578 60.7294 8.58511C60.7294 7.87578 60.9068 7.16644 61.2614 6.45711C61.6254 5.73844 62.0968 5.15511 62.6754 4.70711C63.2541 4.24978 63.8514 4.02111 64.4674 4.02111C64.9154 4.02111 65.2561 4.10978 65.4894 4.28711C65.7228 4.46444 65.8394 4.69311 65.8394 4.97311C65.8394 5.52378 65.5314 5.95311 64.9154 6.26111C64.3088 6.55978 63.5294 6.80711 62.5774 7.00311C62.4934 7.01244 62.4374 7.05444 62.4094 7.12911C62.3161 7.43711 62.2648 7.68911 62.2554 7.88511C62.2461 8.23044 62.3254 8.51044 62.4934 8.72511C62.6614 8.93044 62.8994 9.03311 63.2074 9.03311C63.4688 9.03311 63.7114 8.96778 63.9354 8.83711C64.1594 8.70644 64.3788 8.52444 64.5934 8.29111C64.6868 8.18844 64.7708 8.13711 64.8454 8.13711C64.9294 8.13711 64.9714 8.18378 64.9714 8.27711C64.9714 8.36111 64.9574 8.41711 64.9294 8.44511C64.6401 8.97711 64.2761 9.40644 63.8374 9.73311C63.4081 10.0504 62.9181 10.2091 62.3674 10.2091ZM62.6754 6.56911C63.1701 6.46644 63.6228 6.28444 64.0334 6.02311C64.4441 5.76178 64.6494 5.38844 64.6494 4.90311C64.6494 4.79111 64.6121 4.69311 64.5374 4.60911C64.4721 4.51578 64.3834 4.46911 64.2714 4.46911C64.0474 4.46911 63.8094 4.58111 63.5574 4.80511C63.3054 5.01978 63.0861 5.28578 62.8994 5.60311C62.7128 5.92044 62.6054 6.21444 62.5774 6.48511V6.51311C62.5774 6.55044 62.6101 6.56911 62.6754 6.56911Z" fill="white"/>
<path d="M67.1301 10.2091C66.9901 10.2091 66.8361 10.1298 66.6681 9.97111C66.5001 9.81244 66.416 9.63511 66.416 9.43911C66.416 9.35511 66.43 9.28044 66.458 9.21511L67.942 5.54711C67.9887 5.42578 68.012 5.33244 68.012 5.26711C68.012 5.16444 67.9607 5.11311 67.858 5.11311C67.6807 5.11311 67.4987 5.14578 67.312 5.21111C67.1347 5.27644 66.9527 5.42578 66.7661 5.65911C66.7194 5.70578 66.6727 5.72911 66.6261 5.72911C66.5981 5.72911 66.5701 5.71511 66.5421 5.68711C66.5141 5.65911 66.5 5.62178 66.5 5.57511C66.5 5.49111 66.5514 5.36511 66.6541 5.19711C66.7567 5.02911 66.8547 4.88911 66.9481 4.77711C67.424 4.28244 68.0167 4.03044 68.7261 4.02111C68.9314 4.02111 69.0947 4.08644 69.216 4.21711C69.3467 4.34778 69.412 4.50644 69.412 4.69311C69.412 4.79578 69.3887 4.90778 69.342 5.02911L68.5441 7.04511L68.5301 7.08711C68.5301 7.13378 68.5627 7.15711 68.6281 7.15711C68.6841 7.15711 68.7261 7.13378 68.7541 7.08711C69.9207 5.04311 70.9754 4.02111 71.9181 4.02111C72.2354 4.02111 72.4734 4.11911 72.632 4.31511C72.8 4.51111 72.884 4.76311 72.884 5.07111C72.884 5.35111 72.8327 5.59844 72.73 5.81311L71.596 8.47311C71.5494 8.58511 71.526 8.68778 71.526 8.78111C71.526 8.88378 71.5727 8.93511 71.666 8.93511C71.7967 8.93511 72.0067 8.83244 72.2961 8.62711C72.5947 8.42178 72.8047 8.25844 72.926 8.13711C73.0194 8.04378 73.0847 7.99711 73.122 7.99711C73.15 7.99711 73.178 8.01578 73.206 8.05311C73.234 8.08111 73.248 8.11378 73.248 8.15111C73.248 8.29111 73.2014 8.42178 73.108 8.54311C72.6974 9.02844 72.2307 9.42511 71.7081 9.73311C71.1947 10.0411 70.7094 10.1951 70.2521 10.1951C70.1027 10.1951 69.9627 10.1344 69.832 10.0131C69.7014 9.90111 69.636 9.77511 69.636 9.63511C69.636 9.56978 69.6454 9.51844 69.664 9.48111C70.0374 8.65044 70.2661 8.14178 70.3501 7.95511C70.7794 7.04978 71.134 6.23778 71.414 5.51911C71.4794 5.33244 71.512 5.18311 71.512 5.07111C71.512 4.91244 71.442 4.83311 71.302 4.83311C71.1434 4.82378 70.9614 4.93111 70.7561 5.15511C70.5507 5.36978 70.2754 5.71044 69.93 6.17711C69.7527 6.41978 69.4494 6.88644 69.0201 7.57711C68.5907 8.25844 68.2127 8.88378 67.886 9.45311C67.746 9.69578 67.6154 9.88244 67.494 10.0131C67.3727 10.1438 67.2514 10.2091 67.1301 10.2091Z" fill="white"/>
<path d="M74.9728 10.1951C74.7955 10.1951 74.6228 10.1111 74.4548 9.94311C74.2868 9.77511 74.2028 9.61644 74.2028 9.46711C74.2028 9.38311 74.2168 9.28978 74.2448 9.18711C74.2821 9.07511 74.3241 8.94911 74.3708 8.80911L75.6868 5.21111C75.7148 5.15511 75.7288 5.10378 75.7288 5.05711C75.7288 5.00111 75.7101 4.96378 75.6728 4.94511C75.6355 4.91711 75.5935 4.90311 75.5468 4.90311L74.9028 4.87511C74.7721 4.86578 74.6881 4.83778 74.6508 4.79111C74.6135 4.74444 74.5948 4.68844 74.5948 4.62311C74.5948 4.60444 74.6228 4.55778 74.6788 4.48311C74.7441 4.40844 74.8235 4.34311 74.9168 4.28711C75.0101 4.22178 75.1035 4.18911 75.1968 4.18911H75.8128C75.9341 4.18911 76.0181 4.17511 76.0648 4.14711C76.1115 4.10978 76.1721 4.02111 76.2468 3.88111L76.6108 3.12511C76.7041 2.94778 76.8581 2.77044 77.0728 2.59311C77.2875 2.41578 77.4601 2.32711 77.5908 2.32711C77.6748 2.32711 77.7401 2.35978 77.7868 2.42511C77.8335 2.49044 77.8568 2.57444 77.8568 2.67711C77.8568 2.75178 77.8428 2.82644 77.8148 2.90111L77.4788 3.93711L77.4508 4.06311C77.4508 4.15644 77.5255 4.20311 77.6748 4.20311C77.8895 4.20311 78.2021 4.23111 78.6128 4.28711C78.7808 4.31511 78.8881 4.34778 78.9348 4.38511C78.9815 4.42244 79.0048 4.47844 79.0048 4.55311C79.0048 4.59044 78.9768 4.63711 78.9208 4.69311C78.8648 4.73978 78.7808 4.76778 78.6688 4.77711C78.2674 4.81444 77.9501 4.83778 77.7168 4.84711C77.5581 4.85644 77.4368 4.87978 77.3528 4.91711C77.2781 4.95444 77.2221 5.01978 77.1848 5.11311L76.0788 8.17911C76.0228 8.34711 75.9948 8.47778 75.9948 8.57111C75.9948 8.72978 76.0741 8.80911 76.2328 8.80911C76.4754 8.80911 76.9281 8.49178 77.5908 7.85711C77.6281 7.81044 77.6655 7.78711 77.7028 7.78711C77.7495 7.77778 77.7775 7.78711 77.7868 7.81511C77.8148 7.84311 77.8288 7.88511 77.8288 7.94111C77.8288 8.01578 77.8101 8.08578 77.7728 8.15111C77.6608 8.39378 77.4321 8.67844 77.0868 9.00511C76.7508 9.33178 76.3821 9.61178 75.9808 9.84511C75.5888 10.0784 75.2528 10.1951 74.9728 10.1951Z" fill="white"/>
</svg>
